# AST/ASF file generated using VICON BodyLanguage
# -----------------------------------------------
:version 1.10
:name VICON
:units
  mass 1.0
  length 0.45
  angle deg
:documentation
   .ast/.asf automatically generated from VICON data using
   VICON BodyBuilder and BodyLanguage model FoxedUp or BRILLIANT.MOD
:root
   order TX TY TZ RX RY RZ
   axis XYZ
   position 0 0 0  
   orientation 0 0 0 
:bonedata
  begin
     id 1 
     name lhipjoint
     direction 0.623415 -0.642378 0.445763 
     length 2.49859 
     axis 0 0 0  XYZ
  end
  begin
     id 2 
     name lfemur
     direction 0.34202 -0.939693 0  
     length 6.69689  
     axis 0 0 20  XYZ
    dof rx ry rz
    limits (-160.0 20.0)
           (-70.0 70.0)
           (-60.0 70.0)
  end
  begin
     id 3 
     name ltibia
     direction 0.34202 -0.939693 0   
     length 7.37574   
     axis 0 0 20   XYZ
    dof rx
    limits (-10.0 170.0)
  end
  begin
     id 4 
     name lfoot
     direction 0.084323 -0.231675 0.969132   
     length 2.09111   
     axis -90 7.62852e-016 20   XYZ
    dof rx rz
    limits (-45.0 90.0)
           (-70.0 20.0)
  end
  begin
     id 5 
     name ltoes
     direction 1.5357e-011 -4.21957e-011 1   
     length 1.04989   
     axis -90 7.62852e-016 20   XYZ
    dof rx
    limits (-90.0 20.0)
  end
  begin
     id 6 
     name rhipjoint
     direction -0.605402 -0.653903 0.45376   
     length 2.45455  
     axis 0 0 0  XYZ 
  end
  begin
     id 7 
     name rfemur
     direction -0.34202 -0.939693 0   
     length 6.64523   
     axis 0 0 -20   XYZ
    dof rx ry rz
    limits (-160.0 20.0)
           (-70.0 70.0)
           (-70.0 60.0)
  end
  begin
     id 8 
     name rtibia
     direction -0.34202 -0.939693 0   
     length 7.3339   
     axis 0 0 -20   XYZ
    dof rx
    limits (-10.0 170.0)
 end
 begin
     id 9 
     name rfoot
     direction -0.120854 -0.332043 0.93549   
     length 2.23135  
     axis -90 -7.62852e-016 -20   XYZ
    dof rx rz
    limits (-45.0 90.0)
           (-20.0 70.0)
  end
  begin
     id 10 
     name rtoes
     direction -1.53563e-011 -4.21914e-011 1   
     length 1.10614   
     axis -90 -7.62852e-016 -20   XYZ
    dof rx
    limits (-90.0 20.0)
  end
  begin
     id 11 
     name lowerback
     direction 0.0319682 0.998615 -0.0417941   
     length 2.02718   
     axis 0 0 0   XYZ
    dof rx ry rz
    limits (-20.0 45.0)
           (-30.0 30.0)
           (-30.0 30.0)
  end
  begin
     id 12 
     name upperback
     direction 7.63181e-005 0.995808 0.0914691   
     length 1.97539   
     axis 0 0 0   XYZ
    dof rx ry rz
    limits (-20.0 45.0)
           (-30.0 30.0)
           (-30.0 30.0)
  end
  begin
     id 13 
     name thorax
     direction -0.016423 0.993627 0.111514   
     length 2.00349   
     axis 0 0 0   XYZ
    dof rx ry rz
    limits (-20.0 45.0)
           (-30.0 30.0)
           (-30.0 30.0)
  end
  begin
     id 14 
     name lowerneck
     direction -0.174763 0.981668 -0.0760716   
     length 1.71436   
     axis 0 0 0   XYZ
    dof rx ry rz
    limits (-20.0 45.0)
           (-30.0 30.0)
           (-30.0 30.0)
  end
  begin
     id 15 
     name upperneck
     direction 0.345458 0.934587 -0.0848868   
     length 1.72805   
     axis 0 0 0   XYZ
    dof rx ry rz
    limits (-20.0 45.0)
           (-30.0 30.0)
           (-30.0 30.0)
  end
  begin
     id 16
     name head
     direction 0.13001 0.989848 -0.0574291  
     length 1.767  
     axis 0 0 0   XYZ
    dof rx ry rz
    limits (-20.0 45.0)
           (-30.0 30.0)
           (-30.0 30.0)
  end
  begin
     id 17 
     name lclavicle
     direction 0.952951 0.290122 0.0878234  
     length 3.54654  
     axis 0 0 0   XYZ
    dof ry rz
    limits (-20.0 10.0)
           (0.0 20.0)
  end
  begin
     id 18 
     name lhumerus
     direction 1 -4.48957e-011 -4.56525e-028   
     length 5.19807   
     axis 180 -30 -90   XYZ
    dof rx ry rz
    limits (-60.0 90.0)
           (-90.0 90.0)
           (-90.0 90.0)
  end
  begin
     id 19
     name lradius
     direction 1 -4.48979e-011 -2.0317e-027   
     length 3.0937   
     axis 180 -30 -90   XYZ
    dof rx
    limits (-10.0 170.0)
  end
  begin
     id 20
     name lwrist
     direction 1 -4.48953e-011 -3.05809e-027   
     length 1.54685   
     axis 8.48514e-016 90 90   XYZ
    dof ry
    limits (-180.0 0.0)
 end
  begin
     id 21 
     name lhand
     direction 1 -4.48952e-011 -6.11639e-027   
     length 0.672632   
     axis 3.9013e-015 90 90   XYZ
    dof rx rz
    limits (-90.0 90.0)
           (-45.0 45.0)
  end
  begin
     id 22 
     name lfingers
     direction 1 -4.48925e-011 -1.22426e-026   
     length 0.542293   
     axis 7.80276e-015 90 90   XYZ
    dof rx
    limits (0.0 90.0)
  end
  begin
     id 23
     name lthumb
     direction 0.707107 -6.3486e-011 0.707107   
     length 0.778628   
     axis -90 45 5.37419e-014   XYZ
    dof rx rz
    limits (-45.0 45.0)
           (-45.0 45.0)
  end
  begin
     id 24 
     name rclavicle
     direction -0.960732 0.273675 -0.0457849   
     length 3.52079  
     axis 0 0 0   XYZ 
    dof ry rz
    limits (-10.0 20.0)
           (-20.0 0.0)
  end
  begin
     id 25 
     name rhumerus
     direction -1 -4.48976e-011 -1.63613e-027  
     length 5.45222   
     axis 180 30 90   XYZ
    dof rx ry rz
    limits (-90.0 60.0)
           (-90.0 90.0)
           (-90.0 90.0)
  end
  begin
     id 26 
     name rradius
     direction -1 -4.48957e-011 -7.00033e-028   
     length 3.01284   
     axis 180 30 90   XYZ
    dof rx
    limits (-10.0 170.0)
  end
  begin
     id 27 
     name rwrist
     direction -1 -4.48983e-011 -3.05543e-027   
     length 1.50642   
     axis 8.48514e-016 -90 -90   XYZ
    dof ry
    limits (-180.0 0.0)
  end
  begin
     id 28
     name rhand
     direction -1 -4.48984e-011 -6.11072e-027   
     length 0.622296   
     axis 3.9013e-015 -90 -90   XYZ
    dof rx rz
    limits (-90.0 90.0)
           (-45.0 45.0)
  end
  begin
     id 29
     name rfingers
     direction -1 -4.48865e-011 -1.22637e-026   
     length 0.501711   
     axis 7.80276e-015 -90 -90   XYZ
    dof rx
    limits (0.0 90.0)
  end
  begin
     id 30
     name rthumb
     direction -0.707107 -6.34932e-011 0.707107   
     length 0.72036   
     axis -90 -45 -5.37419e-014   XYZ
    dof rx rz
    limits (-45.0 45.0)
           (-45.0 45.0)
  end
:hierarchy
  begin
    root lhipjoint rhipjoint lowerback
    lhipjoint lfemur
    lfemur ltibia
    ltibia lfoot
    lfoot ltoes
    rhipjoint rfemur
    rfemur rtibia
    rtibia rfoot
    rfoot rtoes
    lowerback upperback
    upperback thorax
    thorax lowerneck lclavicle rclavicle
    lowerneck upperneck
    upperneck head
    lclavicle lhumerus
    lhumerus lradius
    lradius lwrist
    lwrist lhand lthumb
    lhand lfingers
    rclavicle rhumerus
    rhumerus rradius
    rradius rwrist
    rwrist rhand rthumb
    rhand rfingers
  end

#!OML:ASF H:\Not Pregnant\Project 1\Capture day 1\Session 1\non-pregnant.ASF
:FULLY-SPECIFIED
:DEGREES
346
root 6.10692 16.0028 13.5241 18.752 -7.92677 -4.20509
lowerback -2.07237 3.68255 3.43155
upperback -12.3204 5.31719 1.70883
thorax -11.9491 2.35605 -0.481556
lowerneck 23.2011 -10.9556 -30.976
upperneck -14.5791 -20.1228 40.4845
head 0.428694 -12.5779 20.6639
rclavicle -6.5102e-015 -2.38542e-014
rhumerus 24.9123 -33.4719 -74.631
rradius 135.174
rwrist 28.5136
rhand -56.0056 -10.3542
rfingers 7.12502
rthumb -28.3416 -38.2292
lclavicle -6.5102e-015 -2.38542e-014
lhumerus -50.8859 -36.7161 116.683
lradius 58.4576
lwrist 48.5221
lhand -21.6448 -16.2057
lfingers 7.12502
lthumb 4.75179 13.721
rfemur 5.92811 -8.403 22.228
rtibia 16.8026
rfoot -3.93006 2.18178
rtoes -44.5854
lfemur -42.6216 -9.44101 -14.0057
ltibia 38.8308
lfoot -14.6594 -9.29346
ltoes -26.1373
347
root 6.11044 16.017 13.5828 18.6749 -7.58063 -3.9974
lowerback -1.55583 4.03264 3.48668
upperback -12.2831 5.805 1.41934
thorax -12.1691 2.56505 -0.89919
lowerneck 23.5737 -11.3903 -30.9344
upperneck -15.6871 -20.6033 40.7787
head 0.323416 -12.8835 20.7579
rclavicle -6.37602e-014 -3.61788e-014
rhumerus 25.8694 -31.0436 -74.7808
rradius 132.528
rwrist 29.5915
rhand -56.1162 -8.7423
rfingers 7.12502
rthumb -28.4472 -36.5998
lclavicle -6.37602e-014 -3.61788e-014
lhumerus -50.7354 -37.2201 116.62
lradius 59.0987
lwrist 48.7138
lhand -21.6228 -16.1579
lfingers 7.12502
lthumb 4.77297 13.7683
rfemur 3.83618 -8.54961 21.8231
rtibia 20.7921
rfoot -3.52199 3.13992
rtoes -44.2296
lfemur -42.1796 -9.20109 -14.4887
ltibia 38.429
lfoot -14.7135 -9.97333
ltoes -25.5293
348
root 6.11358 16.0306 13.6376 18.5981 -7.33173 -3.78682
lowerback -0.981893 4.3956 3.56369
upperback -12.2277 6.3117 1.11272
thorax -12.3924 2.77766 -1.35936
lowerneck 23.9334 -11.8253 -30.8615
upperneck -16.855 -21.055 41.0799
head 0.191872 -13.1761 20.8589
rclavicle -1.88845e-015 -1.63003e-014
rhumerus 26.9117 -28.704 -74.9307
rradius 129.373
rwrist 30.5722
rhand -55.8762 -6.95443
rfingers 7.12502
rthumb -28.2179 -34.85
lclavicle -1.88845e-015 -1.63003e-014
lhumerus -50.5532 -37.6546 116.432
lradius 59.8103
lwrist 48.936
lhand -21.5934 -16.1041
lfingers 7.12502
lthumb 4.80139 13.8215
rfemur 1.81881 -8.58473 21.392
rtibia 24.5205
rfoot -2.96778 4.21221
rtoes -43.9163
lfemur -41.7305 -8.86969 -14.994
ltibia 38.0252
lfoot -14.7514 -10.65
ltoes -24.8856
349
root 6.11627 16.0434 13.6883 18.5202 -7.17692 -3.57015
lowerback -0.355459 4.77099 3.6672
upperback -12.1536 6.83615 0.780792
thorax -12.6122 2.99227 -1.87392
lowerneck 24.2656 -12.2708 -30.7443
upperneck -18.0629 -21.4882 41.3808
head 0.0421624 -13.4599 20.9557
rclavicle 1.18774e-014 -7.95139e-016
rhumerus 28.0568 -26.5257 -75.1239
rradius 125.687
rwrist 31.4154
rhand -55.1574 -4.98306
rfingers 7.12502
rthumb -27.5307 -32.9901
lclavicle 1.18774e-014 -7.95139e-016
lhumerus -50.3412 -38.0566 116.131
lradius 60.5838
lwrist 49.2209
lhand -21.5791 -16.0998
lfingers 7.12502
lthumb 4.81515 13.8255
rfemur -0.170971 -8.49299 20.9379
rtibia 28.0787
rfoot -2.41241 5.40525
rtoes -43.6239
lfemur -41.2801 -8.45258 -15.5227
ltibia 37.6255
lfoot -14.774 -11.3213
ltoes -24.22
350
root 6.11806 16.0551 13.7351 18.4465 -7.116 -3.34511
lowerback 0.312068 5.15551 3.78565
upperback -12.0662 7.37321 0.425774
thorax -12.8281 3.20767 -2.43391
lowerneck 24.5896 -12.701 -30.5978
upperneck -19.3066 -21.8772 41.7039
head -0.132035 -13.7257 21.0776
rclavicle -4.4329e-014 -3.89618e-014
rhumerus 29.3199 -24.57 -75.3908
rradius 121.469
rwrist 32.1196
rhand -53.8973 -3.10872
rfingers 7.12502
rthumb -26.325 -31.3018
lclavicle -4.4329e-014 -3.89618e-014
lhumerus -50.102 -38.418 115.721
lradius 61.4135
lwrist 49.5555
lhand -21.5866 -16.1332
lfingers 7.12502
lthumb 4.80791 13.7923
rfemur -2.16053 -8.26384 20.4644
rtibia 31.5005
rfoot -2.00209 6.70788
rtoes -43.3279
lfemur -40.8387 -7.9473 -16.0756
ltibia 37.2359
lfoot -14.794 -11.9801
ltoes -23.5836
351
root 6.11895 16.0656 13.7789 18.3747 -7.1439 -3.11691
lowerback 1.00109 5.54831 3.92704
upperback -11.9605 7.92097 0.0469234
thorax -13.0195 3.42302 -3.04235
lowerneck 24.8846 -13.1074 -30.433
upperneck -20.5491 -22.2155 42.0612
head -0.315866 -13.9705 21.2314
rclavicle -4.8255e-014 -3.53837e-014
rhumerus 30.7285 -22.8869 -75.7727
rradius 116.729
rwrist 32.7354
rhand -51.9483 -1.00253
rfingers 7.12502
rthumb -24.4579 -29.4611
lclavicle -4.8255e-014 -3.53837e-014
lhumerus -49.8234 -38.7435 115.198
lradius 62.2878
lwrist 49.9209
lhand -21.5805 -16.1605
lfingers 7.12502
lthumb 4.81387 13.7648
rfemur -4.15023 -7.90489 19.9765
rtibia 34.7878
rfoot -1.86271 8.14747
rtoes -42.9288
lfemur -40.4072 -7.36819 -16.6417
ltibia 36.8621
lfoot -14.809 -12.6173
ltoes -22.9565
